<svg width="70mm" height="70mm" viewBox="-35.0 -35.0 70 70" xmlns="http://www.w3.org/2000/svg" version="1.1" baseProfile="full">
    <style>
        path { fill: lightgrey; stroke: black; stroke-width: 0.2}
        .helpline  { fill: none; stroke: black; stroke-width: 0.05; stroke-dasharray: 1 0.8 }
        .dotline   { fill: none; stroke: black; stroke-width: 0.05; stroke-dasharray: 0.1 0.1 }
        .symline   { fill: none; stroke: black; stroke-width: 0.1; stroke-dasharray: 1.1 0.5 0.1 0.5; stroke-dashoffset: -0.55 }
    </style>
    <g transform="scale(1 -1)">
        <path d="M -4.041443946829896 27.899582975882847 A 1.103 1.103 0 0 1 -1.848 28.130 Q -1.897 28.889 -1.570 29.959 Q -1.258 30.979 -0.684 31.993 A 32.000 32.000 0 0 0 0.684 31.993 Q 1.258 30.979 1.570 29.959 Q 1.897 28.889 1.848 28.130 A 1.103 1.103 0 0 1 4.041 27.900 Q 4.150 28.652 4.693 29.631 Q 5.210 30.564 5.983 31.436 A 32.000 32.000 0 0 0 7.320 31.151 Q 7.672 30.041 7.765 28.978 Q 7.862 27.863 7.656 27.131 A 1.103 1.103 0 0 1 9.754 26.450 Q 10.017 27.163 10.751 28.007 Q 11.451 28.813 12.388 29.505 A 32.000 32.000 0 0 0 13.637 28.949 Q 13.750 27.789 13.620 26.730 Q 13.483 25.619 13.129 24.947 A 1.103 1.103 0 0 1 15.040 23.844 Q 15.445 24.487 16.339 25.160 Q 17.191 25.802 18.252 26.284 A 32.000 32.000 0 0 0 19.358 25.481 Q 19.227 24.323 18.880 23.314 Q 18.515 22.256 18.029 21.672 A 1.103 1.103 0 0 1 19.669 20.196 Q 20.199 20.740 21.213 21.213 Q 22.180 21.664 23.318 21.915 A 32.000 32.000 0 0 0 24.233 20.899 Q 23.864 19.794 23.314 18.880 Q 22.738 17.920 22.141 17.450 A 1.103 1.103 0 0 1 23.438 15.665 Q 24.070 16.087 25.160 16.339 Q 26.200 16.579 27.365 16.588 A 32.000 32.000 0 0 0 28.048 15.404 Q 27.458 14.400 26.730 13.620 Q 25.967 12.801 25.285 12.465 A 1.103 1.103 0 0 1 26.182 10.450 Q 26.888 10.732 28.007 10.751 Q 29.074 10.770 30.216 10.536 A 32.000 32.000 0 0 0 30.638 9.236 Q 29.852 8.377 28.978 7.765 Q 28.061 7.123 27.324 6.936 A 1.103 1.103 0 0 1 27.783 4.778 Q 28.532 4.907 29.631 4.693 Q 30.678 4.489 31.746 4.024 A 32.000 32.000 0 0 0 31.889 2.664 Q 30.941 1.987 29.959 1.570 Q 28.929 1.133 28.169 1.103 A 1.103 1.103 0 0 1 28.169 -1.103 Q 28.929 -1.133 29.959 -1.570 Q 30.941 -1.987 31.889 -2.664 A 32.000 32.000 0 0 0 31.746 -4.024 Q 30.678 -4.489 29.631 -4.693 Q 28.532 -4.907 27.783 -4.778 A 1.103 1.103 0 0 1 27.324 -6.936 Q 28.061 -7.123 28.978 -7.765 Q 29.852 -8.377 30.638 -9.236 A 32.000 32.000 0 0 0 30.216 -10.536 Q 29.074 -10.770 28.007 -10.751 Q 26.888 -10.732 26.182 -10.450 A 1.103 1.103 0 0 1 25.285 -12.465 Q 25.967 -12.801 26.730 -13.620 Q 27.458 -14.400 28.048 -15.404 A 32.000 32.000 0 0 0 27.365 -16.588 Q 26.200 -16.579 25.160 -16.339 Q 24.070 -16.087 23.438 -15.665 A 1.103 1.103 0 0 1 22.141 -17.450 Q 22.738 -17.920 23.314 -18.880 Q 23.864 -19.794 24.233 -20.899 A 32.000 32.000 0 0 0 23.318 -21.915 Q 22.180 -21.664 21.213 -21.213 Q 20.199 -20.740 19.669 -20.196 A 1.103 1.103 0 0 1 18.029 -21.672 Q 18.515 -22.256 18.880 -23.314 Q 19.227 -24.323 19.358 -25.481 A 32.000 32.000 0 0 0 18.252 -26.284 Q 17.191 -25.802 16.339 -25.160 Q 15.445 -24.487 15.040 -23.844 A 1.103 1.103 0 0 1 13.129 -24.947 Q 13.483 -25.619 13.620 -26.730 Q 13.750 -27.789 13.637 -28.949 A 32.000 32.000 0 0 0 12.388 -29.505 Q 11.451 -28.813 10.751 -28.007 Q 10.017 -27.163 9.754 -26.450 A 1.103 1.103 0 0 1 7.656 -27.131 Q 7.862 -27.863 7.765 -28.978 Q 7.672 -30.041 7.320 -31.151 A 32.000 32.000 0 0 0 5.983 -31.436 Q 5.210 -30.564 4.693 -29.631 Q 4.150 -28.652 4.041 -27.900 A 1.103 1.103 0 0 1 1.848 -28.130 Q 1.897 -28.889 1.570 -29.959 Q 1.258 -30.979 0.684 -31.993 A 32.000 32.000 0 0 0 -0.684 -31.993 Q -1.258 -30.979 -1.570 -29.959 Q -1.897 -28.889 -1.848 -28.130 A 1.103 1.103 0 0 1 -4.041 -27.900 Q -4.150 -28.652 -4.693 -29.631 Q -5.210 -30.564 -5.983 -31.436 A 32.000 32.000 0 0 0 -7.320 -31.151 Q -7.672 -30.041 -7.765 -28.978 Q -7.862 -27.863 -7.656 -27.131 A 1.103 1.103 0 0 1 -9.754 -26.450 Q -10.017 -27.163 -10.751 -28.007 Q -11.451 -28.813 -12.388 -29.505 A 32.000 32.000 0 0 0 -13.637 -28.949 Q -13.750 -27.789 -13.620 -26.730 Q -13.483 -25.619 -13.129 -24.947 A 1.103 1.103 0 0 1 -15.040 -23.844 Q -15.445 -24.487 -16.339 -25.160 Q -17.191 -25.802 -18.252 -26.284 A 32.000 32.000 0 0 0 -19.358 -25.481 Q -19.227 -24.323 -18.880 -23.314 Q -18.515 -22.256 -18.029 -21.672 A 1.103 1.103 0 0 1 -19.669 -20.196 Q -20.199 -20.740 -21.213 -21.213 Q -22.180 -21.664 -23.318 -21.915 A 32.000 32.000 0 0 0 -24.233 -20.899 Q -23.864 -19.794 -23.314 -18.880 Q -22.738 -17.920 -22.141 -17.450 A 1.103 1.103 0 0 1 -23.438 -15.665 Q -24.070 -16.087 -25.160 -16.339 Q -26.200 -16.579 -27.365 -16.588 A 32.000 32.000 0 0 0 -28.048 -15.404 Q -27.458 -14.400 -26.730 -13.620 Q -25.967 -12.801 -25.285 -12.465 A 1.103 1.103 0 0 1 -26.182 -10.450 Q -26.888 -10.732 -28.007 -10.751 Q -29.074 -10.770 -30.216 -10.536 A 32.000 32.000 0 0 0 -30.638 -9.236 Q -29.852 -8.377 -28.978 -7.765 Q -28.061 -7.123 -27.324 -6.936 A 1.103 1.103 0 0 1 -27.783 -4.778 Q -28.532 -4.907 -29.631 -4.693 Q -30.678 -4.489 -31.746 -4.024 A 32.000 32.000 0 0 0 -31.889 -2.664 Q -30.941 -1.987 -29.959 -1.570 Q -28.929 -1.133 -28.169 -1.103 A 1.103 1.103 0 0 1 -28.169 1.103 Q -28.929 1.133 -29.959 1.570 Q -30.941 1.987 -31.889 2.664 A 32.000 32.000 0 0 0 -31.746 4.024 Q -30.678 4.489 -29.631 4.693 Q -28.532 4.907 -27.783 4.778 A 1.103 1.103 0 0 1 -27.324 6.936 Q -28.061 7.123 -28.978 7.765 Q -29.852 8.377 -30.638 9.236 A 32.000 32.000 0 0 0 -30.216 10.536 Q -29.074 10.770 -28.007 10.751 Q -26.888 10.732 -26.182 10.450 A 1.103 1.103 0 0 1 -25.285 12.465 Q -25.967 12.801 -26.730 13.620 Q -27.458 14.400 -28.048 15.404 A 32.000 32.000 0 0 0 -27.365 16.588 Q -26.200 16.579 -25.160 16.339 Q -24.070 16.087 -23.438 15.665 A 1.103 1.103 0 0 1 -22.141 17.450 Q -22.738 17.920 -23.314 18.880 Q -23.864 19.794 -24.233 20.899 A 32.000 32.000 0 0 0 -23.318 21.915 Q -22.180 21.664 -21.213 21.213 Q -20.199 20.740 -19.669 20.196 A 1.103 1.103 0 0 1 -18.029 21.672 Q -18.515 22.256 -18.880 23.314 Q -19.227 24.323 -19.358 25.481 A 32.000 32.000 0 0 0 -18.252 26.284 Q -17.191 25.802 -16.339 25.160 Q -15.445 24.487 -15.040 23.844 A 1.103 1.103 0 0 1 -13.129 24.947 Q -13.483 25.619 -13.620 26.730 Q -13.750 27.789 -13.637 28.949 A 32.000 32.000 0 0 0 -12.388 29.505 Q -11.451 28.813 -10.751 28.007 Q -10.017 27.163 -9.754 26.450 A 1.103 1.103 0 0 1 -7.656 27.131 Q -7.862 27.863 -7.765 28.978 Q -7.672 30.041 -7.320 31.151 A 32.000 32.000 0 0 0 -5.983 31.436 Q -5.210 30.564 -4.693 29.631 Q -4.150 28.652 -4.041 27.900 C"/>
        <circle class="helpline" r="32.0"/>
        <circle class="symline"  r="30.0"/>
        <circle class="dotline"  r="28.190778623577252"/>
        <circle class="helpline" r="27.666"/>
    </g>
</svg>
