<svg width="142mm" height="124mm" viewBox="-70 -123 142 124" xmlns="http://www.w3.org/2000/svg" version="1.1">
    <style />
    <g transform="scale(1, -1)" fill="lightgrey">
        <g transform="rotate(90.000)">
            <path d="M 46.683 -12.509 Q 47.424 -6.883 55.797 -8.098 Q 57.301 -8.316 59.487 -7.832 Q 65.783 -6.436 69.936 -2.986  A 70.000 70.000 0 0 1 69.936 2.986 Q 65.783 6.436 59.487 7.832 Q 57.301 8.316 55.797 8.098 Q 48.162 6.990 46.683 12.509 Q 45.204 18.028 52.371 20.886 Q 53.782 21.449 55.433 22.961 Q 60.188 27.318 62.060 32.382  A 70.000 70.000 0 0 1 59.074 37.554 Q 53.752 38.465 47.601 36.526 Q 45.466 35.853 44.273 34.911 Q 38.215 30.134 34.174 34.174 Q 30.134 38.215 34.911 44.273 Q 35.853 45.466 36.526 47.601 Q 38.465 53.752 37.554 59.074  A 70.000 70.000 0 0 1 32.382 62.060 Q 27.318 60.188 22.961 55.433 Q 21.449 53.782 20.886 52.371 Q 18.028 45.204 12.509 46.683 Q 6.990 48.162 8.098 55.797 Q 8.316 57.301 7.832 59.487 Q 6.436 65.783 2.986 69.936  A 70.000 70.000 0 0 1 -2.986 69.936 Q -6.436 65.783 -7.832 59.487 Q -8.316 57.301 -8.098 55.797 Q -6.990 48.162 -12.509 46.683 Q -18.028 45.204 -20.886 52.371 Q -21.449 53.782 -22.961 55.433 Q -27.318 60.188 -32.382 62.060  A 70.000 70.000 0 0 1 -37.554 59.074 Q -38.465 53.752 -36.526 47.601 Q -35.853 45.466 -34.911 44.273 Q -30.134 38.215 -34.174 34.174 Q -38.215 30.134 -44.273 34.911 Q -45.466 35.853 -47.601 36.526 Q -53.752 38.465 -59.074 37.554  A 70.000 70.000 0 0 1 -62.060 32.382 Q -60.188 27.318 -55.433 22.961 Q -53.782 21.449 -52.371 20.886 Q -45.204 18.028 -46.683 12.509 Q -48.162 6.990 -55.797 8.098 Q -57.301 8.316 -59.487 7.832 Q -65.783 6.436 -69.936 2.986  A 70.000 70.000 0 0 1 -69.936 -2.986 Q -65.783 -6.436 -59.487 -7.832 Q -57.301 -8.316 -55.797 -8.098 Q -48.162 -6.990 -46.683 -12.509 Q -45.204 -18.028 -52.371 -20.886 Q -53.782 -21.449 -55.433 -22.961 Q -60.188 -27.318 -62.060 -32.382  A 70.000 70.000 0 0 1 -59.074 -37.554 Q -53.752 -38.465 -47.601 -36.526 Q -45.466 -35.853 -44.273 -34.911 Q -38.215 -30.134 -34.174 -34.174 Q -30.134 -38.215 -34.911 -44.273 Q -35.853 -45.466 -36.526 -47.601 Q -38.465 -53.752 -37.554 -59.074  A 70.000 70.000 0 0 1 -32.382 -62.060 Q -27.318 -60.188 -22.961 -55.433 Q -21.449 -53.782 -20.886 -52.371 Q -18.028 -45.204 -12.509 -46.683 Q -6.990 -48.162 -8.098 -55.797 Q -8.316 -57.301 -7.832 -59.487 Q -6.436 -65.783 -2.986 -69.936  A 70.000 70.000 0 0 1 2.986 -69.936 Q 6.436 -65.783 7.832 -59.487 Q 8.316 -57.301 8.098 -55.797 Q 6.990 -48.162 12.509 -46.683 Q 18.028 -45.204 20.886 -52.371 Q 21.449 -53.782 22.961 -55.433 Q 27.318 -60.188 32.382 -62.060  A 70.000 70.000 0 0 1 37.554 -59.074 Q 38.465 -53.752 36.526 -47.601 Q 35.853 -45.466 34.911 -44.273 Q 30.134 -38.215 34.174 -34.174 Q 38.215 -30.134 44.273 -34.911 Q 45.466 -35.853 47.601 -36.526 Q 53.752 -38.465 59.074 -37.554  A 70.000 70.000 0 0 1 62.060 -32.382 Q 60.188 -27.318 55.433 -22.961 Q 53.782 -21.449 52.371 -20.886 Q 45.204 -18.028 46.683 -12.509 C" stroke="lightgrey" stroke-width="0.35" stroke-linecap="round" fill="none" />
            <path d="M 46.683 -12.509 Q 48.162 -6.990 55.797 -8.098 Q 57.301 -8.316 59.487 -7.832 Q 65.783 -6.436 69.936 -2.986  A 70.000 70.000 0 0 1 69.936 2.986 Q 65.783 6.436 59.487 7.832 Q 57.301 8.316 55.797 8.098 Q 48.162 6.990 46.683 12.509" stroke="black" stroke-width="0.35" stroke-linecap="round" />
            <path d="M 46.683 -12.509  L 46.683 12.509  L 0.000 0.000" stroke="none" stroke-width="0.35" stroke-linecap="round" />
            <path d="M 0.000 -60.000  A 60.000 60.000 0 0 1 0.000 60.000" stroke="black" stroke-width="0.2" stroke-linecap="round" fill="none" stroke-dasharray="2.0 1.0 0.0 1.0" stroke-dashoffset="1.0" />
            <path d="M 0.000 -56.382  A 56.382 56.382 0 0 1 0.000 56.382" stroke="black" stroke-width="0.1" stroke-linecap="round" fill="none" stroke-dasharray="0.0 0.2" />
            <line x1="0.000" y1="0.000" x2="101.422" y2="-27.176" stroke="black" stroke-width="0.1" stroke-linecap="round" />
            <line x1="0.000" y1="0.000" x2="101.422" y2="27.176" stroke="black" stroke-width="0.1" stroke-linecap="round" />
            <path d="M 98.524 -26.400  A 102.000 102.000 0 0 1 98.524 26.400" stroke="black" stroke-width="0.1" stroke-linecap="round" fill="none" />
            <g transform="translate(102.000 0.000) rotate(-90.000)">
                <text transform="translate(-0.500 0.500) scale(0.25, -0.25)" fill="black" stroke="none">&#964;</text>
            </g>
            <line x1="0.000" y1="0.000" x2="99.000" y2="0.000" stroke="black" stroke-width="0.2" stroke-linecap="round" stroke-dasharray="2.0 1.0 0.0 1.0" stroke-dashoffset="1.0" />
            <path d="M 92.729 -24.847  A 96.000 96.000 0 0 1 92.729 24.847" stroke="black" stroke-width="0.1" stroke-linecap="round" fill="none" />
            <g transform="translate(95.179 -12.531) rotate(-97.500)">
                <text transform="translate(-2.300 0.500) scale(0.25, -0.25)" fill="black" stroke="none">&#964;/2</text>
            </g>
            <g transform="translate(95.179 12.531) rotate(-82.500)">
                <text transform="translate(-2.300 0.500) scale(0.25, -0.25)" fill="black" stroke="none">&#964;/2</text>
            </g>
            <line x1="0.000" y1="0.000" x2="92.036" y2="-13.357" stroke="black" stroke-width="0.1" stroke-linecap="round" />
            <line x1="0.000" y1="0.000" x2="92.036" y2="13.357" stroke="black" stroke-width="0.1" stroke-linecap="round" />
            <path d="M 89.067 -12.926  A 90.000 90.000 0 0 1 89.067 12.926" stroke="black" stroke-width="0.1" stroke-linecap="round" fill="none" />
            <g transform="translate(89.766 -6.480) rotate(-94.129)">
                <text transform="translate(-0.900 0.500) scale(0.25, -0.25)" fill="black" stroke="none">&#946;</text>
            </g>
            <g transform="translate(89.766 6.480) rotate(-85.871)">
                <text transform="translate(-0.900 0.500) scale(0.25, -0.25)" fill="black" stroke="none">&#946;</text>
            </g>
            <line x1="0.000" y1="0.000" x2="86.256" y2="-11.356" stroke="black" stroke-width="0.1" stroke-linecap="round" />
            <line x1="0.000" y1="0.000" x2="86.256" y2="11.356" stroke="black" stroke-width="0.1" stroke-linecap="round" />
            <path d="M 83.281 -10.964  A 84.000 84.000 0 0 1 83.281 10.964" stroke="black" stroke-width="0.1" stroke-linecap="round" fill="none" />
            <g transform="translate(83.820 -5.494) rotate(-93.750)">
                <text transform="translate(-2.300 0.500) scale(0.25, -0.25)" fill="black" stroke="none">&#964;/4</text>
            </g>
            <g transform="translate(83.820 5.494) rotate(-86.250)">
                <text transform="translate(-2.300 0.500) scale(0.25, -0.25)" fill="black" stroke="none">&#964;/4</text>
            </g>
            <line x1="0.000" y1="0.000" x2="80.926" y2="-3.455" stroke="black" stroke-width="0.1" stroke-linecap="round" />
            <line x1="0.000" y1="0.000" x2="80.926" y2="3.455" stroke="black" stroke-width="0.1" stroke-linecap="round" />
            <path d="M 77.929 -3.327  A 78.000 78.000 0 0 1 77.929 3.327" stroke="black" stroke-width="0.1" stroke-linecap="round" fill="none" />
            <g transform="translate(77.982 -1.664) rotate(-91.222)">
                <text transform="translate(-0.900 0.500) scale(0.25, -0.25)" fill="black" stroke="none">&#947;</text>
            </g>
            <g transform="translate(77.982 1.664) rotate(-88.778)">
                <text transform="translate(-0.900 0.500) scale(0.25, -0.25)" fill="black" stroke="none">&#947;</text>
            </g>
            <circle cx="0.000" cy="0.000" r="0.5" fill="black" />
            <circle cx="46.683" cy="-12.509" r="0.5" fill="black" />
            <circle cx="55.797" cy="-8.098" r="0.5" fill="black" />
            <circle cx="59.487" cy="-7.832" r="0.5" fill="black" />
            <circle cx="69.936" cy="-2.986" r="0.5" fill="black" />
            <circle cx="69.936" cy="2.986" r="0.5" fill="black" />
            <circle cx="59.487" cy="7.832" r="0.5" fill="black" />
            <circle cx="55.797" cy="8.098" r="0.5" fill="black" />
            <circle cx="46.683" cy="12.509" r="0.5" fill="black" />
        </g>
    </g>
</svg>