<svg width="142mm" height="124mm" viewBox="-70 -123 142 124" xmlns="http://www.w3.org/2000/svg" version="1.1">
    <style />
    <g transform="scale(1, -1)" fill="lightgrey">
        <path d="M 46.683 -12.509 Q 56.254 -11.249 55.797 -8.098 Q 57.233 -17.995 59.487 -7.832 Q 57.148 -18.382 69.936 -2.986 A 70.000 70.000 0 0 0 69.936 2.986 Q 57.148 18.382 59.487 7.832 Q 57.233 17.995 55.797 8.098 Q 56.072 9.993 46.683 12.509 Q 48.803 11.941 52.371 20.886 Q 51.476 18.643 55.433 22.961 Q 65.093 33.504 62.060 32.382 A 70.000 70.000 0 0 0 59.074 37.554 Q 55.151 60.470 47.601 36.526 Q 48.971 40.869 44.273 34.911 Q 39.496 28.853 34.174 34.174 Q 28.853 39.496 34.911 44.273 Q 40.869 48.971 36.526 47.601 Q 60.470 55.151 37.554 59.074 A 70.000 70.000 0 0 0 32.382 62.060 Q 33.504 65.093 22.961 55.433 Q 18.643 51.476 20.886 52.371 Q 11.941 48.803 12.509 46.683 Q 9.993 56.072 8.098 55.797 Q 17.995 57.233 7.832 59.487 Q 18.382 57.148 2.986 69.936 A 70.000 70.000 0 0 0 -2.986 69.936 Q -18.382 57.148 -7.832 59.487 Q -17.995 57.233 -8.098 55.797 Q -9.993 56.072 -12.509 46.683 Q -11.941 48.803 -20.886 52.371 Q -18.643 51.476 -22.961 55.433 Q -33.504 65.093 -32.382 62.060 A 70.000 70.000 0 0 0 -37.554 59.074 Q -60.470 55.151 -36.526 47.601 Q -40.869 48.971 -34.911 44.273 Q -28.853 39.496 -34.174 34.174 Q -39.496 28.853 -44.273 34.911 Q -48.971 40.869 -47.601 36.526 Q -55.151 60.470 -59.074 37.554 A 70.000 70.000 0 0 0 -62.060 32.382 Q -65.093 33.504 -55.433 22.961 Q -51.476 18.643 -52.371 20.886 Q -48.803 11.941 -46.683 12.509 Q -56.072 9.993 -55.797 8.098 Q -57.233 17.995 -59.487 7.832 Q -57.148 18.382 -69.936 2.986 A 70.000 70.000 0 0 0 -69.936 -2.986 Q -57.148 -18.382 -59.487 -7.832 Q -57.233 -17.995 -55.797 -8.098 Q -56.072 -9.993 -46.683 -12.509 Q -48.803 -11.941 -52.371 -20.886 Q -51.476 -18.643 -55.433 -22.961 Q -65.093 -33.504 -62.060 -32.382 A 70.000 70.000 0 0 0 -59.074 -37.554 Q -55.151 -60.470 -47.601 -36.526 Q -48.971 -40.869 -44.273 -34.911 Q -39.496 -28.853 -34.174 -34.174 Q -28.853 -39.496 -34.911 -44.273 Q -40.869 -48.971 -36.526 -47.601 Q -60.470 -55.151 -37.554 -59.074 A 70.000 70.000 0 0 0 -32.382 -62.060 Q -33.504 -65.093 -22.961 -55.433 Q -18.643 -51.476 -20.886 -52.371 Q -11.941 -48.803 -12.509 -46.683 Q -9.993 -56.072 -8.098 -55.797 Q -17.995 -57.233 -7.832 -59.487 Q -18.382 -57.148 -2.986 -69.936 A 70.000 70.000 0 0 0 2.986 -69.936 Q 18.382 -57.148 7.832 -59.487 Q 17.995 -57.233 8.098 -55.797 Q 9.993 -56.072 12.509 -46.683 Q 11.941 -48.803 20.886 -52.371 Q 18.643 -51.476 22.961 -55.433 Q 33.504 -65.093 32.382 -62.060 A 70.000 70.000 0 0 0 37.554 -59.074 Q 60.470 -55.151 36.526 -47.601 Q 40.869 -48.971 34.911 -44.273 Q 28.853 -39.496 34.174 -34.174 Q 39.496 -28.853 44.273 -34.911 Q 48.971 -40.869 47.601 -36.526 Q 55.151 -60.470 59.074 -37.554 A 70.000 70.000 0 0 0 62.060 -32.382 Q 65.093 -33.504 55.433 -22.961 Q 51.476 -18.643 52.371 -20.886 Q 48.803 -11.941 46.683 -12.509 C" stroke="lightgrey" stroke-width="0.35" stroke-linecap="round" fill="none" />
        <path d="M 46.683 -12.509 Q 56.072 -9.993 55.797 -8.098 Q 57.233 -17.995 59.487 -7.832 Q 57.148 -18.382 69.936 -2.986 A 70.000 70.000 0 0 0 69.936 2.986 Q 57.148 18.382 59.487 7.832 Q 57.233 17.995 55.797 8.098 Q 56.072 9.993 46.683 12.509" stroke="black" stroke-width="0.35" stroke-linecap="round" />
        <path d="M 46.683 -12.509 L 46.683 12.509 L 0.000 0.000" stroke="none" stroke-width="0.35" stroke-linecap="round" />
        <path d="M 0.000 -60.000 A 60.000 60.000 0 0 0 0.000 60.000" stroke="black" stroke-width="0.2" stroke-linecap="round" fill="none" stroke-dasharray="2.0 1.0 0.0 1.0" stroke-dashoffset="1.0" />
        <path d="M 0.000 -56.382 A 56.382 56.382 0 0 0 0.000 56.382" stroke="black" stroke-width="0.1" stroke-linecap="round" fill="none" stroke-dasharray="0.0 0.2" />
        <line x1="0.000" y1="0.000" x2="101.422" y2="-27.176" stroke="black" stroke-width="0.1" stroke-linecap="round" />
        <line x1="0.000" y1="0.000" x2="101.422" y2="27.176" stroke="black" stroke-width="0.1" stroke-linecap="round" />
        <path d="M 98.524 -26.400 A 102.000 102.000 0 0 0 98.524 26.400" stroke="black" stroke-width="0.1" stroke-linecap="round" fill="none" />
        <g transform="translate(0.000 102.000) rotate(0.000)">
            <text transform="translate(-0.500 0.500) scale(0.25, -0.25)" fill="black" stroke="none">&#964;</text>
        </g>
        <line x1="0.000" y1="0.000" x2="99.000" y2="0.000" stroke="black" stroke-width="0.2" stroke-linecap="round" stroke-dasharray="2.0 1.0 0.0 1.0" stroke-dashoffset="1.0" />
        <path d="M 92.729 -24.847 A 96.000 96.000 0 0 0 92.729 24.847" stroke="black" stroke-width="0.1" stroke-linecap="round" fill="none" />
        <g transform="translate(-12.531 95.179) rotate(7.500)">
            <text transform="translate(-2.300 0.500) scale(0.25, -0.25)" fill="black" stroke="none">&#964;/2</text>
        </g>
        <g transform="translate(12.531 95.179) rotate(-7.500)">
            <text transform="translate(-2.300 0.500) scale(0.25, -0.25)" fill="black" stroke="none">&#964;/2</text>
        </g>
        <line x1="0.000" y1="0.000" x2="92.036" y2="-13.357" stroke="black" stroke-width="0.1" stroke-linecap="round" />
        <line x1="0.000" y1="0.000" x2="92.036" y2="13.357" stroke="black" stroke-width="0.1" stroke-linecap="round" />
        <path d="M 89.067 -12.926 A 90.000 90.000 0 0 0 89.067 12.926" stroke="black" stroke-width="0.1" stroke-linecap="round" fill="none" />
        <g transform="translate(-6.480 89.766) rotate(4.129)">
            <text transform="translate(-0.900 0.500) scale(0.25, -0.25)" fill="black" stroke="none">&#946;</text>
        </g>
        <g transform="translate(6.480 89.766) rotate(-4.129)">
            <text transform="translate(-0.900 0.500) scale(0.25, -0.25)" fill="black" stroke="none">&#946;</text>
        </g>
        <line x1="0.000" y1="0.000" x2="86.256" y2="-11.356" stroke="black" stroke-width="0.1" stroke-linecap="round" />
        <line x1="0.000" y1="0.000" x2="86.256" y2="11.356" stroke="black" stroke-width="0.1" stroke-linecap="round" />
        <path d="M 83.281 -10.964 A 84.000 84.000 0 0 0 83.281 10.964" stroke="black" stroke-width="0.1" stroke-linecap="round" fill="none" />
        <g transform="translate(-5.494 83.820) rotate(3.750)">
            <text transform="translate(-2.300 0.500) scale(0.25, -0.25)" fill="black" stroke="none">&#964;/4</text>
        </g>
        <g transform="translate(5.494 83.820) rotate(-3.750)">
            <text transform="translate(-2.300 0.500) scale(0.25, -0.25)" fill="black" stroke="none">&#964;/4</text>
        </g>
        <line x1="0.000" y1="0.000" x2="80.926" y2="-3.455" stroke="black" stroke-width="0.1" stroke-linecap="round" />
        <line x1="0.000" y1="0.000" x2="80.926" y2="3.455" stroke="black" stroke-width="0.1" stroke-linecap="round" />
        <path d="M 77.929 -3.327 A 78.000 78.000 0 0 0 77.929 3.327" stroke="black" stroke-width="0.1" stroke-linecap="round" fill="none" />
        <g transform="translate(-1.664 77.982) rotate(1.222)">
            <text transform="translate(-0.900 0.500) scale(0.25, -0.25)" fill="black" stroke="none">&#947;</text>
        </g>
        <g transform="translate(1.664 77.982) rotate(-1.222)">
            <text transform="translate(-0.900 0.500) scale(0.25, -0.25)" fill="black" stroke="none">&#947;</text>
        </g>
        <circle cx="0.000" cy="0.000" r="0.5" fill="black" />
        <circle cx="46.683" cy="-12.509" r="0.5" fill="black" />
        <circle cx="55.797" cy="-8.098" r="0.5" fill="black" />
        <circle cx="59.487" cy="-7.832" r="0.5" fill="black" />
        <circle cx="69.936" cy="-2.986" r="0.5" fill="black" />
        <circle cx="69.936" cy="2.986" r="0.5" fill="black" />
        <circle cx="59.487" cy="7.832" r="0.5" fill="black" />
        <circle cx="55.797" cy="8.098" r="0.5" fill="black" />
        <circle cx="46.683" cy="12.509" r="0.5" fill="black" />
    </g>
</svg>