<svg width="200mm" height="200mm" viewBox="-100 -100 200 200" xmlns="http://www.w3.org/2000/svg" version="1.1" baseProfile="full">
    <path d="M 0.0 20.0 L 0.0009567215112891669 20.02739678030862 L 0.007647478470959751 20.109361808893926 L 0.025774865954639244 20.245220178041393 L 0.06097872756611176 20.43385046863412 L 0.11880510241310245 20.67368987695337 L 0.20467555801583664 20.96274136462854 L 0.32385703559539 21.298582804282326 L 0.481432332315149 21.678378085739244 L 0.6822713427186774 22.098890140111312 L 0.9310031788289105 22.556495831671764 L 1.2319892851563534 23.04720266020044 L 1.5892976612189424 23.56666720946078 L 2.0066783001158983 24.110215270670594 L 2.4875399472362614 24.672863563283556 L 3.034928278335032 25.249342969126864 L 3.6515055909928282 25.834123189966768 L 4.339532097906341 26.421438732917863 L 5.100848904556208 27.005316122795243 L 5.936862747586006 27.57960223554959 L 6.848532563722792 28.137993642342174 L 7.836357952298122 28.674066849626204 L 8.900369587412156 29.181309316818357 L 10.04012162854679 29.65315112978374 L 11.254686171001202 30.082997205431393 L 12.542649769921331 30.46425990023698 L 13.902112063949069 30.790391893484173 L 15.330686516655005 31.054919214454426 L 16.82550328596702 31.2514742817026 L 18.383214223794333 31.37382882193892 L 19.999999999999993 31.415926535897935 L 21.67157933682291 31.371915378916334 L 23.393220331820828 31.23617932476069 L 25.159753839427776 31.003369482545146 L 26.965588873319177 30.66843443835195 L 28.804729983985418 30.22664969541077 L 30.670796558255873 29.673646089399725 L 32.55704398001786 29.00543705859296 L 34.45638658406631 28.218444652188055 L 36.3614223279245 27.30952416418885 L 38.264459099620716 26.27598728468436 L 40.157542572814855 25.115623665236885 L 42.03248551436534 23.82672080035736 L 43.88089844343484 22.40808213268607 L 45.69422153557427 20.859043295494256 L 47.46375765991869 19.179486412456797 L 49.18070643269728 17.369852381297903 L 50.836199165719826 15.431151074857906 L 52.42133458437154 13.364969400348368 L 53.92721518594282 11.173477165028428 L 55.344984105855445 8.859430704226165 L 56.665862356533744 6.42617423551507 L 57.88118630132156 3.8776389109149108 L 58.98244522397209 1.2183395471887286 L 59.96131885284695 -1.5466309773738638 L 60.80971469806086 -4.411609662889297 L 61.51980505940224 -7.370373659264023 L 62.0840635629542 -10.416152855268614 L 62.49530108493425 -13.541644763040118 L 62.746700922366536 -16.739031667280038 L 62.83185307179586 -19.999999999999968" stroke="black" fill="none" stroke-width="0.2"/>
    <path d="M 20.0 1.2246467991473533e-15 L 20.02739678030862 -0.0009567215112878015 L 20.109361808893926 -0.007647478470957124 L 20.245220178041393 -0.02577486595463969 L 20.43385046863412 -0.06097872756611108 L 20.67368987695337 -0.11880510241310005 L 20.96274136462854 -0.204675558015833 L 21.298582804282326 -0.32385703559538986 L 21.678378085739244 -0.4814323323151477 L 22.098890140111312 -0.682271342718676 L 22.556495831671764 -0.931003178828909 L 23.04720266020044 -1.2319892851563519 L 23.56666720946078 -1.5892976612189436 L 24.110215270670594 -2.0066783001158965 L 24.672863563283556 -2.48753994723626 L 25.249342969126864 -3.0349282783350335 L 25.834123189966764 -3.6515055909928296 L 26.421438732917863 -4.339532097906343 L 27.005316122795243 -5.100848904556206 L 27.579602235549594 -5.936862747586001 L 28.137993642342177 -6.848532563722787 L 28.674066849626204 -7.8363579522981235 L 29.181309316818357 -8.900369587412154 L 29.653151129783744 -10.040121628546785 L 30.082997205431393 -11.254686171001204 L 30.464259900236982 -12.54264976992133 L 30.790391893484173 -13.902112063949067 L 31.054919214454426 -15.330686516655003 L 31.251474281702606 -16.825503285967013 L 31.373828821938922 -18.383214223794326 L 31.415926535897935 -19.99999999999999 L 31.371915378916334 -21.67157933682291 L 31.236179324760695 -23.393220331820828 L 31.00336948254515 -25.15975383942777 L 30.66843443835195 -26.965588873319174 L 30.226649695410767 -28.80472998398542 L 29.67364608939973 -30.670796558255873 L 29.005437058592964 -32.55704398001785 L 28.218444652188047 -34.456386584066315 L 27.30952416418885 -36.3614223279245 L 26.27598728468435 -38.26445909962072 L 25.115623665236882 -40.15754257281486 L 23.826720800357375 -42.032485514365334 L 22.408082132686072 -43.88089844343484 L 20.859043295494253 -45.69422153557427 L 19.17948641245679 -47.46375765991869 L 17.369852381297907 -49.18070643269728 L 15.43115107485791 -50.836199165719826 L 13.364969400348372 -52.42133458437154 L 11.173477165028432 -53.92721518594282 L 8.859430704226156 -55.34498410585545 L 6.42617423551506 -56.665862356533744 L 3.8776389109149276 -57.88118630132156 L 1.2183395471887324 -58.98244522397209 L -1.546630977373847 -59.96131885284695 L -4.411609662889292 -60.80971469806086 L -7.370373659264033 -61.51980505940223 L -10.416152855268624 -62.0840635629542 L -13.541644763040114 -62.495301084934255 L -16.739031667280035 -62.746700922366536 L -19.999999999999964 -62.83185307179586" stroke="black" fill="none" stroke-width="0.2"/>
    <path d="M 2.4492935982947065e-15 -20.0 L -0.0009567215112910222 -20.02739678030862 L -0.007647478470955893 -20.109361808893926 L -0.025774865954633956 -20.245220178041393 L -0.06097872756610983 -20.43385046863412 L -0.11880510241310337 -20.67368987695337 L -0.20467555801583173 -20.96274136462854 L -0.3238570355953838 -21.298582804282326 L -0.48143233231514154 -21.678378085739244 L -0.6822713427186746 -22.098890140111312 L -0.9310031788289078 -22.556495831671764 L -1.2319892851563505 -23.04720266020044 L -1.5892976612189422 -23.56666720946078 L -2.0066783001159005 -24.110215270670594 L -2.487539947236264 -24.672863563283556 L -3.0349282783350318 -25.249342969126864 L -3.6515055909928282 -25.834123189966768 L -4.33953209790634 -26.421438732917863 L -5.100848904556205 -27.005316122795243 L -5.936862747585999 -27.579602235549594 L -6.848532563722785 -28.137993642342177 L -7.836357952298122 -28.674066849626204 L -8.900369587412147 -29.18130931681836 L -10.040121628546784 -29.653151129783744 L -11.254686171001202 -30.082997205431393 L -12.542649769921319 -30.464259900236986 L -13.902112063949058 -30.790391893484177 L -15.330686516655 -31.054919214454426 L -16.825503285967006 -31.251474281702606 L -18.383214223794326 -31.373828821938922 L -19.99999999999999 -31.41592653589794 L -21.671579336822905 -31.371915378916338 L -23.393220331820824 -31.236179324760695 L -25.15975383942776 -31.00336948254515 L -26.965588873319174 -30.668434438351955 L -28.804729983985418 -30.22664969541077 L -30.670796558255866 -29.67364608939973 L -32.55704398001785 -29.005437058592964 L -34.456386584066315 -28.218444652188047 L -36.361422327924515 -27.30952416418884 L -38.26445909962072 -26.27598728468435 L -40.15754257281486 -25.115623665236882 L -42.032485514365334 -23.82672080035738 L -43.88089844343482 -22.408082132686094 L -45.69422153557427 -20.859043295494253 L -47.46375765991869 -19.17948641245679 L -49.18070643269728 -17.369852381297886 L -50.836199165719826 -15.431151074857892 L -52.421334584371536 -13.364969400348373 L -53.92721518594282 -11.173477165028435 L -55.34498410585545 -8.85943070422616 L -56.665862356533744 -6.426174235515065 L -57.88118630132156 -3.8776389109149307 L -58.98244522397209 -1.2183395471887097 L -59.96131885284695 1.5466309773738431 L -60.80971469806086 4.411609662889316 L -61.51980505940223 7.37037365926403 L -62.0840635629542 10.41615285526862 L -62.49530108493425 13.54164476304014 L -62.74670092236656 16.73903166728 L -62.83185307179586 19.99999999999996" stroke="black" fill="none" stroke-width="0.2"/>
    <path d="M -20.0 -3.673940397442059e-15 L -20.02739678030862 0.000956721511280902 L -20.109361808893926 0.007647478470963591 L -20.245220178041393 0.025774865954641707 L -20.43385046863412 0.060978727566099504 L -20.67368987695337 0.11880510241310209 L -20.96274136462854 0.20467555801583978 L -21.298582804282326 0.32385703559538254 L -21.678378085739244 0.4814323323151402 L -22.098890140111312 0.6822713427186634 L -22.556495831671764 0.9310031788289064 L -23.04720266020044 1.231989285156339 L -23.566667209460782 1.58929766121893 L -24.110215270670594 2.006678300115899 L -24.672863563283556 2.4875399472362623 L -25.249342969126864 3.0349282783350304 L -25.834123189966768 3.6515055909928154 L -26.421438732917867 4.339532097906327 L -27.005316122795247 5.100848904556203 L -27.57960223554959 5.9368627475860105 L -28.137993642342174 6.848532563722796 L -28.674066849626204 7.83635795229812 L -29.18130931681836 8.900369587412145 L -29.65315112978374 10.040121628546796 L -30.082997205431393 11.2546861710012 L -30.464259900236986 12.542649769921317 L -30.790391893484177 13.902112063949057 L -31.054919214454426 15.330686516654998 L -31.25147428170261 16.825503285967006 L -31.373828821938922 18.383214223794322 L -31.41592653589794 19.999999999999982 L -31.37191537891633 21.671579336822916 L -31.23617932476071 23.39322033182081 L -31.003369482545157 25.15975383942776 L -30.668434438351955 26.96558887331917 L -30.22664969541077 28.804729983985418 L -29.67364608939973 30.670796558255866 L -29.005437058592985 32.55704398001784 L -28.218444652188055 34.456386584066315 L -27.30952416418884 36.361422327924515 L -26.27598728468436 38.264459099620716 L -25.115623665236885 40.157542572814855 L -23.826720800357382 42.032485514365334 L -22.408082132686097 43.88089844343482 L -20.859043295494256 45.69422153557427 L -19.179486412456793 47.46375765991869 L -17.36985238129789 49.18070643269728 L -15.431151074857894 50.836199165719826 L -13.364969400348379 52.421334584371536 L -11.173477165028439 53.92721518594282 L -8.859430704226162 55.344984105855445 L -6.4261742355150675 56.665862356533744 L -3.877638910914934 57.88118630132156 L -1.2183395471887133 58.98244522397209 L 1.5466309773738394 59.96131885284695 L 4.411609662889312 60.80971469806086 L 7.370373659264025 61.51980505940223 L 10.416152855268617 62.0840635629542 L 13.541644763040134 62.49530108493425 L 16.739031667279995 62.74670092236656 L 19.999999999999957 62.83185307179586" stroke="black" fill="none" stroke-width="0.2"/>
    <circle r="20" fill="blue" stroke="black" stroke-width="0.2"/>
</svg>
