<svg width="150mm" height="100mm" viewBox="-50 -50 150 100" xmlns="http://www.w3.org/2000/svg" version="1.1">
    <style />
    <g transform="scale(1, -1)" fill="lightgrey">
        <path d="M 0.000 20.000 L 0.001 20.027 L 0.008 20.109 L 0.026 20.245 L 0.061 20.434 L 0.119 20.674 L 0.205 20.963 L 0.324 21.299 L 0.481 21.678 L 0.682 22.099 L 0.931 22.556 L 1.232 23.047 L 1.589 23.567 L 2.007 24.110 L 2.488 24.673 L 3.035 25.249 L 3.652 25.834 L 4.340 26.421 L 5.101 27.005 L 5.937 27.580 L 6.849 28.138 L 7.836 28.674 L 8.900 29.181 L 10.040 29.653 L 11.255 30.083 L 12.543 30.464 L 13.902 30.790 L 15.331 31.055 L 16.826 31.251 L 18.383 31.374 L 20.000 31.416 L 21.672 31.372 L 23.393 31.236 L 25.160 31.003 L 26.966 30.668 L 28.805 30.227 L 30.671 29.674 L 32.557 29.005 L 34.456 28.218 L 36.361 27.310 L 38.264 26.276 L 40.158 25.116 L 42.032 23.827 L 43.881 22.408 L 45.694 20.859 L 47.464 19.179 L 49.181 17.370 L 50.836 15.431 L 52.421 13.365 L 53.927 11.173 L 55.345 8.859 L 56.666 6.426 L 57.881 3.878 L 58.982 1.218 L 59.961 -1.547 L 60.810 -4.412 L 61.520 -7.370 L 62.084 -10.416 L 62.495 -13.542 L 62.747 -16.739 L 62.832 -20.000" stroke="black" stroke-width="0.35" stroke-linecap="round" fill="none" />
        <circle cx="0.000" cy="0.000" r="20.000" stroke="black" stroke-width="0.35" stroke-linecap="round" />
        <line x1="-40.000" y1="0.000" x2="40.000" y2="0.000" stroke="black" stroke-width="0.2" stroke-linecap="round" stroke-dasharray="2.0 1.0 0.0 1.0" stroke-dashoffset="1.0" />
        <line x1="0.000" y1="-40.000" x2="0.000" y2="40.000" stroke="black" stroke-width="0.2" stroke-linecap="round" stroke-dasharray="2.0 1.0 0.0 1.0" stroke-dashoffset="1.0" />
        <line x1="0.000" y1="0.000" x2="34.641" y2="20.000" stroke="black" stroke-width="0.1" stroke-linecap="round" />
        <line x1="0.000" y1="0.000" x2="9.459" y2="38.865" stroke="black" stroke-width="0.1" stroke-linecap="round" />
        <line x1="-10.472" y1="18.138" x2="24.169" y2="38.138" stroke="black" stroke-width="0.1" stroke-linecap="round" />
        <line x1="1.849" y1="36.798" x2="22.321" y2="1.340" stroke="black" stroke-width="0.1" stroke-linecap="round" />
        <line x1="0.000" y1="0.000" x2="17.321" y2="10.000" stroke="black" stroke-width="0.2" stroke-linecap="round" />
        <g transform="translate(8.660 5.000) rotate(30.000)">
            <text transform="translate(0.000 0.500) scale(0.25, -0.25)" fill="black" stroke="none">r</text>
        </g>
        <line x1="17.321" y1="10.000" x2="6.849" y2="28.138" stroke="red" stroke-width="0.35" stroke-linecap="round" fill="none" />
        <path d="M 0.000 20.000 A 20.000 20.000 0 0 0 17.321 10.000" stroke="red" stroke-width="0.35" stroke-linecap="round" fill="none" />
        <g transform="translate(8.135 18.271) rotate(-24.000)">
            <text transform="translate(-0.500 0.500) scale(0.25, -0.25)" fill="red" stroke="none">&#945;</text>
        </g>
        <line x1="0.000" y1="0.000" x2="6.849" y2="28.138" stroke="blue" stroke-width="0.2" stroke-linecap="round" />
        <g transform="translate(3.424 14.069) rotate(76.321)">
            <text transform="translate(0.000 0.500) scale(0.25, -0.25)" fill="blue" stroke="none">s</text>
        </g>
        <path d="M 0.000 28.959 A 28.959 28.959 0 0 0 6.849 28.138" stroke="blue" stroke-width="0.1" stroke-linecap="round" fill="none" />
        <g transform="translate(3.449 28.753) rotate(-6.840)">
            <text transform="translate(-0.500 0.500) scale(0.25, -0.25)" fill="blue" stroke="none">&#947;</text>
        </g>
        <circle cx="0.000" cy="0.000" r="0.5" fill="black" />
        <circle cx="0.000" cy="20.000" r="0.5" fill="black" />
        <circle cx="17.321" cy="10.000" r="0.5" fill="black" />
        <circle cx="6.849" cy="28.138" r="0.5" fill="black" />
    </g>
</svg>