<svg width="20cm" height="20cm" viewBox="-10 -10 20 20" xmlns="http://www.w3.org/2000/svg" version="1.1" baseProfile="full">
    <path id="involute" d="M 0.0 1.0 L 0.0003823739235479876 1.0054680904446964 L 0.003048936378305588 1.021692523431706 L 0.010233777900791831 1.0481370682314268 L 0.02407161661575745 1.083918904286962 L 0.04655015894144552 1.1278247915835882 L 0.07946488306094712 1.1783333604730388 L 0.12437699736181307 1.233643178164178 L 0.18257527954964142 1.2917061594983383 L 0.2550424452278104 1.350265806139762 L 0.3424266281861396 1.4068996821171087 L 0.44501847937060784 1.459065465840918 L 0.5627343085500601 1.5041498602715697 L 0.6951056031974534 1.5395195946742086 L 0.841275164298351 1.5625737140851301 L 0.9999999999999996 1.5707963267948966 L 1.1696610165910413 1.5618089662380346 L 1.3482794436659589 1.5334217219175974 L 1.5335398279127936 1.4836823044699863 L 1.7228193292033156 1.4109222326094029 L 1.913222954981036 1.3137993642342178 L 2.101624275718267 1.191336040017868 L 2.2847110767787133 1.0429521647747129 L 2.4590353216348637 0.8684926190648952 L 2.621066729218577 0.6682484700174184 L 2.767249205292772 0.4429715352113083 L 2.894059315066078 0.19388194554574553 L 2.9980659426423473 -0.07733154886869319 L 3.075990252970112 -0.3685186829632011 L 3.1247650542467125 -0.6770822381520059 L 3.141592653589793 -0.9999999999999986 L 3.124000306399617 -1.3338539427373854 L 3.0698923802135005 -1.6748663639002104 L 2.977598386840764 -2.0189425875941605 L 2.8459160818345626 -2.3617197541196706 L 2.6741488874098813 -2.698621118378484 L 2.462136963096683 -3.0249151909634953 L 2.2102813269112387 -3.3357789753932505 L 1.9195605176794321 -3.6263644837713884 L 1.591539385262647 -3.891867652297392 L 1.2283696986087589 -4.127598728468435 L 0.8327823704621038 -4.3290531642912375 L 0.4080712108126738 -4.491982025013125 L -0.041931762728945964 -4.612460911266014 L -0.5128893120056575 -4.686956394408294 L -0.9999999999999988 -4.71238898038469 L -1.49804686888373 -4.686191646561199 L -2.0014532841344654 -4.606363038509404 L -2.504345347275527 -4.471514469211541 L -3.0006201790360216 -4.280909931059724 L -3.4840192817759337 -4.034498410585544 L -3.9482061062087244 -3.7329378861754976 L -4.386846874007789 -3.3776104890477616 L -4.793693645907917 -2.9706284162939647 L -5.162668575376206 -2.5148303005078754 L -5.4879482516441 -2.013767862006205 L -5.764047013516399 -1.4716827953784506 L -5.985898107383902 -0.8934739704940443 L -6.148931569561918 -0.2846551575053045 L -6.249147734569878 0.3486963858593123 L -6.283185307179585 0.9999999999999957" stroke="black" fill="none" stroke-width="0.05"/>
    <path id="involute" d="M 0.8660254037844386 0.5000000000000001 L 0.8709520959815105 0.502402899690811 L 0.8863361483376381 0.508205805357718 L 0.9128302166869552 0.5152058224769399 L 0.9507371150625812 0.5211128206440756 L 0.9999999999999999 0.523598775598299 L 1.0601990658268114 0.5203480727969797 L 1.1305548301764567 0.5091079497203288 L 1.2099379881252155 0.4877382495561345 L 1.2968857125924131 0.4542596664592961 L 1.3896241793827373 0.406899682117109 L 1.4860969988881148 0.3441354246319916 L 1.5839991443690231 0.2647327233503625 L 1.6808158802105135 0.16778068665520413 L 1.7738661138327003 0.05272119318726586 L 1.8603495231756633 -0.08062724038698967 L 1.9373967489159714 -0.23205167106515606 L 2.002121887728496 -0.4009333886562713 L 2.0516764807728434 -0.5862432964527023 L 2.0833041608056577 -0.7865441889162355 L 2.0943951023931953 -0.9999999999999993 L 2.0825394129585617 -1.2243919919731563 L 2.045578608016232 -1.4571417504107083 L 1.9816543319269122 -1.6953407478065827 L 1.8892535156844572 -1.935786137508766 L 1.7672492052927724 -2.175022342780186 L 1.6149363477108063 -2.4093879141333434 L 1.432061885486888 -2.635067042983559 L 1.2188485852697404 -2.848145042347039 L 0.9760121084324935 -3.0446670369115156 L 0.7047709230104603 -3.2206990463513256 L 0.4068487538511984 -3.3723905981411306 L 0.08446937102509555 -3.4960379700992736 L -0.2596563762184491 -3.588147139068746 L -0.6223512627698902 -3.64549550096724 L -0.9999999999999998 -3.665191429188092 L -1.3885849181195002 -3.6447307531201445 L -1.783728670644962 -3.582049266312135 L -2.180743507487948 -3.47557041429769 L -2.574686562425119 -3.324247364909618 L -2.9604205061776314 -3.127598728468438 L -3.3326788293785676 -2.885737270789625 L -3.6861349415980955 -2.599391047623413 L -4.015474204483563 -2.269916483884278 L -4.315467959990329 -1.8993030236777242 L -4.581048569526989 -1.490169086407909 L -4.8073844473662914 -1.0457491787675548 L -4.989954052470052 -0.5698721307064619 L -5.124617797364649 -0.06693054401580391 L -5.2076868411288215 0.45815833662354155 L -5.23598775598299 0.9999999999999989 L -5.206922093281727 1.552777844265846 L -5.118519924608038 2.1103155908792153 L -4.969486496668467 2.6661462671693172 L -4.759241214134778 3.2135869873414724 L -4.4879482516441005 3.7458186695750815 L -4.156538193868435 4.2559697446238 L -3.7667202097599435 4.737202840212627 L -3.3209843824988154 5.182803366620089 L -2.8225939389229553 5.586268883069144 L -2.2755672498053596 5.94139809270265" stroke="black" fill="none" stroke-width="0.05"/>
    <path id="involute" d="M 0.8660254037844387 -0.49999999999999983 L 0.8705697220579628 -0.5030651907538852 L 0.8832872119593327 -0.513486718073988 L 0.9025964387861636 -0.5329312457544867 L 0.9266654984468239 -0.5628060836428865 L 0.9534498410585546 -0.604226015985289 L 0.9807341827658644 -0.6579852876760592 L 1.006177832814644 -0.7245352284438488 L 1.0273627085755743 -0.803967909942204 L 1.041843267364603 -0.8960061396804659 L 1.047197551196598 -0.9999999999999994 L 1.041078519517507 -1.1149300412089265 L 1.0212648358189633 -1.2394171369212075 L 0.9857102770130602 -1.3717389080190048 L 0.9325909495343494 -1.5098525208978646 L 0.860349523175664 -1.6514235671818864 L 0.7677357323249304 -1.7938606373031907 L 0.6538424440625376 -1.9343551105738686 L 0.51813665286005 -2.0699256009226885 L 0.36048483160234285 -2.1974664215256383 L 0.18117214741216042 -2.3137993642342174 L -0.019084862759705074 -2.4157280319910246 L -0.2391324687624805 -2.5000939151854213 L -0.4773809897079508 -2.5638333668714774 L -0.7318132135341197 -2.6040346075261853 L -0.999999999999999 -2.617993877991495 L -1.2791229673552722 -2.6032698596790893 L -1.5660040571554597 -2.5577354941148664 L -1.8571416677003705 -2.479626359383839 L -2.148752945814218 -2.3675847987595104 L -2.4368217305793336 -2.2206990463513283 L -2.7171515525484176 -2.038536655403746 L -2.985423009188404 -1.8211716061990637 L -3.237254763059213 -1.5692045514745874 L -3.4682673446044543 -1.2837757468475688 L -3.6741488874098804 -0.9665703108096088 L -3.850721881216185 -0.619815562156648 L -3.9940099975562 -0.24627029091888575 L -4.100304025167381 0.15079406947369692 L -4.166225947687767 0.5676202873877757 L -4.188790204786391 0.9999999999999951 L -4.1654611998406725 1.4433158935016142 L -4.094206152410769 1.892590977389711 L -3.9735424417546175 2.342544427381735 L -3.8025786479846717 2.7876533707305686 L -3.58104856952699 3.222219893976783 L -3.3093375784825603 3.6404424677936467 L -2.9885007683355895 4.036490907802941 L -2.62027245008912 4.404583925195739 L -2.2070666620928034 4.739068267683266 L -1.7519684742070543 5.034498410585545 L -1.2587159870730011 5.285715730441345 L -0.7316730506002523 5.487926079926978 L -0.17579285076055384 5.636774683463283 L 0.4034273612414251 5.728417287849349 L 0.9999999999999961 5.759586531581289 L 1.6075088196479617 5.7276525400022535 L 2.219177897623957 5.6306768107066745 L 2.8279471870631006 5.467458524125396 L 3.4265537956469205 5.237572497209834 L 4.007618057374224 4.9413980927026575" stroke="black" fill="none" stroke-width="0.05"/>
    <path id="involute" d="M 1.2246467991473532e-16 -1.0 L -0.00038237392354779464 -1.0054680904446964 L -0.0030489363783054915 -1.021692523431706 L -0.010233777900791587 -1.0481370682314268 L -0.024071616615757074 -1.083918904286962 L -0.04655015894144539 -1.1278247915835882 L -0.0794648830609471 -1.1783333604730388 L -0.12437699736181321 -1.233643178164178 L -0.18257527954964142 -1.2917061594983383 L -0.2550424452278102 -1.350265806139762 L -0.3424266281861393 -1.406899682117109 L -0.44501847937060734 -1.4590654658409181 L -0.5627343085500601 -1.5041498602715697 L -0.6951056031974528 -1.5395195946742088 L -0.8412751642983505 -1.5625737140851303 L -0.9999999999999993 -1.5707963267948968 L -1.169661016591041 -1.5618089662380348 L -1.3482794436659586 -1.5334217219175976 L -1.5335398279127934 -1.4836823044699865 L -1.7228193292033158 -1.4109222326094024 L -1.9132229549810362 -1.3137993642342176 L -2.1016242757182666 -1.191336040017869 L -2.2847110767787138 -1.0429521647747126 L -2.4590353216348637 -0.8684926190648943 L -2.6210667292185765 -0.6682484700174187 L -2.7672492052927726 -0.44297153521130794 L -2.894059315066078 -0.19388194554574653 L -2.9980659426423473 0.07733154886869216 L -3.0759902529701115 0.36851868296320145 L -3.1247650542467125 0.677082238152007 L -3.141592653589793 0.9999999999999981 L -3.1240003063996173 1.3338539427373837 L -3.0698923802135014 1.6748663639002086 L -2.9775983868407643 2.01894258759416 L -2.845916081834563 2.36171975411967 L -2.674148887409883 2.6986211183784827 L -2.4621369630966834 3.024915190963495 L -2.2102813269112405 3.335778975393249 L -1.9195605176794341 3.626364483771387 L -1.5915393852626474 3.891867652297391 L -1.2283696986087593 4.127598728468435 L -0.8327823704621043 4.3290531642912375 L -0.40807121081267234 4.491982025013125 L 0.041931762728943354 4.612460911266014 L 0.5128893120056547 4.686956394408295 L 0.9999999999999982 4.712388980384691 L 1.4980468688837296 4.686191646561199 L 2.001453284134465 4.606363038509404 L 2.5043453472755264 4.471514469211542 L 3.0006201790360207 4.280909931059725 L 3.4840192817759332 4.034498410585544 L 3.9482061062087235 3.732937886175498 L 4.386846874007788 3.377610489047762 L 4.793693645907916 2.970628416293965 L 5.162668575376205 2.5148303005078763 L 5.4879482516441 2.013767862006206 L 5.764047013516398 1.4716827953784515 L 5.985898107383902 0.893473970494045 L 6.148931569561918 0.2846551575053053 L 6.249147734569878 -0.3486963858593115 L 6.283185307179585 -0.999999999999995" stroke="black" fill="none" stroke-width="0.05"/>
    <path id="involute" d="M -0.8660254037844384 -0.5000000000000004 L -0.8709520959815106 -0.502402899690811 L -0.8863361483376377 -0.5082058053577188 L -0.9128302166869552 -0.51520582247694 L -0.950737115062581 -0.5211128206440762 L -0.9999999999999998 -0.5235987755982994 L -1.0601990658268112 -0.5203480727969804 L -1.1305548301764567 -0.5091079497203289 L -1.2099379881252152 -0.4877382495561351 L -1.296885712592413 -0.45425966645929655 L -1.3896241793827373 -0.40689968211710914 L -1.4860969988881148 -0.3441354246319924 L -1.5839991443690231 -0.2647327233503627 L -1.6808158802105135 -0.1677806866552051 L -1.7738661138327003 -0.05272119318726687 L -1.8603495231756633 0.08062724038698904 L -1.9373967489159711 0.23205167106515626 L -2.002121887728496 0.4009333886562706 L -2.0516764807728434 0.5862432964527016 L -2.0833041608056577 0.7865441889162352 L -2.0943951023931957 0.999999999999999 L -2.0825394129585626 1.2243919919731552 L -2.045578608016232 1.457141750410708 L -1.9816543319269138 1.6953407478065805 L -1.8892535156844574 1.935786137508766 L -1.7672492052927726 2.175022342780186 L -1.6149363477108076 2.4093879141333425 L -1.4320618854868894 2.6350670429835583 L -1.2188485852697406 2.848145042347039 L -0.9760121084324967 3.0446670369115147 L -0.7047709230104607 3.2206990463513256 L -0.4068487538511988 3.3723905981411306 L -0.084469371025096 3.4960379700992736 L 0.25965637621844867 3.588147139068746 L 0.6223512627698896 3.64549550096724 L 0.9999999999999993 3.665191429188092 L 1.3885849181194998 3.6447307531201445 L 1.7837286706449615 3.5820492663121355 L 2.1807435074879478 3.47557041429769 L 2.5746865624251187 3.324247364909618 L 2.960420506177631 3.127598728468438 L 3.3326788293785676 2.885737270789625 L 3.686134941598093 2.5993910476234166 L 4.015474204483563 2.2699164838842782 L 4.315467959990329 1.8993030236777249 L 4.581048569526989 1.4901690864079096 L 4.807384447366291 1.0457491787675555 L 4.989954052470052 0.5698721307064625 L 5.124617797364649 0.06693054401580455 L 5.2076868411288215 -0.4581583366235409 L 5.23598775598299 -0.9999999999999983 L 5.206922093281727 -1.5527778442658453 L 5.11851992460804 -2.11031559087921 L 4.969486496668465 -2.666146267169321 L 4.759241214134782 -3.2135869873414675 L 4.487948251644098 -3.7458186695750846 L 4.15653819386844 -4.255969744623797 L 3.7667202097599395 -4.737202840212631 L 3.320984382498811 -5.1828033666200914 L 2.822593938922951 -5.586268883069145 L 2.275567249805366 -5.941398092702647" stroke="black" fill="none" stroke-width="0.05"/>
    <path id="involute" d="M -0.8660254037844386 0.5000000000000001 L -0.8705697220579625 0.5030651907538859 L -0.8832872119593327 0.5134867180739879 L -0.9025964387861631 0.5329312457544874 L -0.9266654984468239 0.5628060836428864 L -0.9534498410585545 0.6042260159852892 L -0.9807341827658645 0.657985287676059 L -1.0061778328146436 0.7245352284438495 L -1.0273627085755743 0.8039679099422039 L -1.0418432673646028 0.8960061396804662 L -1.0471975511965972 1.0000000000000002 L -1.0410785195175072 1.1149300412089262 L -1.0212648358189629 1.239417136921208 L -0.9857102770130605 1.3717389080190046 L -0.9325909495343496 1.5098525208978644 L -0.8603495231756635 1.6514235671818867 L -0.767735732324929 1.7938606373031911 L -0.6538424440625369 1.9343551105738688 L -0.5181366528600494 2.069925600922689 L -0.3604848316023412 2.1974664215256388 L -0.18117214741215865 2.313799364234218 L 0.01908486275970478 2.4157280319910246 L 0.23913246876248243 2.5000939151854213 L 0.4773809897079505 2.5638333668714774 L 0.7318132135341205 2.604034607526185 L 1.000000000000001 2.617993877991494 L 1.279122967355272 2.6032698596790893 L 1.5660040571554594 2.5577354941148664 L 1.8571416677003725 2.4796263593838375 L 2.1487529458142176 2.3675847987595104 L 2.436821730579334 2.2206990463513274 L 2.7171515525484193 2.0385366554037443 L 2.9854230091884055 1.8211716061990615 L 3.237254763059214 1.5692045514745852 L 3.468267344604454 1.2837757468475692 L 3.6741488874098813 0.9665703108096058 L 3.8507218812161845 0.6198155621566485 L 3.9940099975562005 0.2462702909188827 L 4.10030402516738 -0.15079406947370005 L 4.166225947687767 -0.5676202873877753 L 4.188790204786391 -0.9999999999999946 L 4.1654611998406725 -1.4433158935016137 L 4.094206152410769 -1.8925909773897105 L 3.9735424417546152 -2.3425444273817377 L 3.8025786479846695 -2.7876533707305717 L 3.581048569526991 -3.222219893976783 L 3.3093375784825607 -3.640442467793646 L 2.988500768335583 -4.036490907802945 L 2.620272450089121 -4.404583925195739 L 2.207066662092804 -4.739068267683265 L 1.7519684742070547 -5.034498410585545 L 1.2587159870730018 -5.285715730441345 L 0.7316730506002432 -5.48792607992698 L 0.17579285076055454 -5.636774683463283 L -0.4034273612414346 -5.728417287849349 L -0.9999999999999954 -5.759586531581289 L -1.6075088196479708 -5.727652540002251 L -2.2191778976239567 -5.630676810706675 L -2.8279471870631006 -5.467458524125397 L -3.4265537956469196 -5.237572497209834 L -4.007618057374232 -4.94139809270265" stroke="black" fill="none" stroke-width="0.05"/>
    <circle r="1" fill="yellow" stroke="black" stroke-width="0.05"/>
</svg>
