<svg width="150mm" height="100mm" viewBox="-50 -50 150 100" xmlns="http://www.w3.org/2000/svg" version="1.1" baseProfile="full">
    <style>
        .base      { fill: lightgrey; stroke: black; stroke-width: 0.2}
        .involute  { fill: none; stroke: black; stroke-width: 0.2}
        .arcline   { fill: none; stroke: red;   stroke-width: 0.2}
        .dotline   { fill: none; stroke: black; stroke-width: 0.05 }
        .symline   { fill: none; stroke: black; stroke-width: 0.1; stroke-dasharray: 2.0 0.8 0.1 0.8; stroke-dashoffset: -1.0 }
    </style>
    <g transform="scale(1 -1)">
        <path class="involute" d="M 0.000 20.000 L 0.001 20.027 L 0.008 20.109 L 0.026 20.245 L 0.061 20.434 L 0.119 20.674 L 0.205 20.963 L 0.324 21.299 L 0.481 21.678 L 0.682 22.099 L 0.931 22.556 L 1.232 23.047 L 1.589 23.567 L 2.007 24.110 L 2.488 24.673 L 3.035 25.249 L 3.652 25.834 L 4.340 26.421 L 5.101 27.005 L 5.937 27.580 L 6.849 28.138 L 7.836 28.674 L 8.900 29.181 L 10.040 29.653 L 11.255 30.083 L 12.543 30.464 L 13.902 30.790 L 15.331 31.055 L 16.826 31.251 L 18.383 31.374 L 20.000 31.416 L 21.672 31.372 L 23.393 31.236 L 25.160 31.003 L 26.966 30.668 L 28.805 30.227 L 30.671 29.674 L 32.557 29.005 L 34.456 28.218 L 36.361 27.310 L 38.264 26.276 L 40.158 25.116 L 42.032 23.827 L 43.881 22.408 L 45.694 20.859 L 47.464 19.179 L 49.181 17.370 L 50.836 15.431 L 52.421 13.365 L 53.927 11.173 L 55.345 8.859 L 56.666 6.426 L 57.881 3.878 L 58.982 1.218 L 59.961 -1.547 L 60.810 -4.412 L 61.520 -7.370 L 62.084 -10.416 L 62.495 -13.542 L 62.747 -16.739 L 62.832 -20.000"/>
        <circle class="base" r="20"/>
        <circle r="0.4" fill="black"/>
        <line class="symline" x1="40" x2="-40"/>
        <line class="symline" y1="40" y2="-40"/>
        <line class="dotline" x1="34.64101615137754" y1="20.000000000000004"/>
        <line class="dotline" x1="9.459482494002966" y1="38.865385511347384"/>
        <circle cx="6.848532563722792" cy="28.137993642342174" r="0.4" fill="black"/>
        <circle cx="17.32050807568877" cy="10.000000000000002" r="0.4" fill="black"/>
        <line class="dotline" x1="1.612544807739802" y1="37.206990463513264" x2="22.55649583167176" y2="0.9310031788289148"/>
        <line class="dotline" x1="24.986526206064966" y1="38.60996915430815" x2="-11.289461078619382" y2="17.666018130376195"/>
        <path class="dotline" d="M 11.178659582644984 30.637993642342174 A 5 5 0 0 0 9.348532563722792 23.807866623419983"/>
        <circle cx="9.263347129445462" cy="27.49094602958587" r="0.25" fill="black"/>
        <path class="dotline" d="M 21.650635094610962 12.500000000000004 A 5 5 0 0 1 14.820508075688771 14.330127018922195"/>
        <circle cx="17.967555688445074" cy="12.414814565722672" r="0.25" fill="black"/>
        <line class="arcline" x1="6.848532563722792" y1="28.137993642342174" x2="17.32050807568877" y2="10.000000000000002"/>
        <g transform="translate(12.084520319705781 19.068996821171087)"><text transform="scale(0.25 -0.25)" fill="red">&#x03B1;</text></g>
        <path class="arcline" d="M 0 20 A 20 20 0 0 0 17.32050807568877 10.000000000000002"/>
        <line stroke="black" stroke-width="0.2" x2="17.32050807568877" y2="10.000000000000002"/>
        <g transform="translate(10.392304845413262 7.000000000000001)"><text transform="scale(0.25 -0.25)" fill="black">r</text></g>
        <line stroke="blue" stroke-width="0.2" x1="6.848532563722792" y1="28.137993642342174"/>
        <g transform="translate(3.478826050978234 22.51039491387374)"><text transform="scale(0.25 -0.25)" fill="blue">s</text></g>
        <path stroke="blue" stroke-width="0.1" fill="none" d="M 0.0 10.0 A 10 10 0 0 0 2.3648706235007415 9.716346377836846"/>
        <g transform="translate(0.0 11)"><text transform="scale(0.25 -0.25)" fill="blue">&#x03B3;</text></g>
        <path stroke="red" stroke-width="0.1" fill="none" d="M 0.0 5.0 A 5 5 0 0 0 4.330127018922193 2.5000000000000004"/>
        <g transform="translate(3 4)"><text transform="scale(0.25 -0.25)" fill="red">&#x03B1;</text></g>
    </g>
</svg>
