<svg width="150.000mm" height="100.000mm" viewBox="-50.000 -50.000 150.000 100.000" xmlns="http://www.w3.org/2000/svg" version="1.1">
    <style />
    <g transform="scale(1, -1)" fill="lightgrey">
        <circle cx="0.000" cy="0.000" r="20.000" stroke="black" stroke-width="0.35" stroke-linecap="round" />
        <g transform="translate(-1.500 1.000) rotate(0.000)">
            <text transform="translate(0.000 0.000) scale(0.25, -0.25)" fill="black" stroke="none">M</text>
        </g>
        <line x1="-40.000" y1="0.000" x2="40.000" y2="0.000" stroke="black" stroke-width="0.2" stroke-linecap="round" stroke-dasharray="2.0 1.0 0.0 1.0" stroke-dashoffset="1.0" />
        <line x1="0.000" y1="-40.000" x2="0.000" y2="40.000" stroke="black" stroke-width="0.2" stroke-linecap="round" stroke-dasharray="2.0 1.0 0.0 1.0" stroke-dashoffset="1.0" />
        <line x1="0.000" y1="0.000" x2="28.284" y2="28.284" stroke="black" stroke-width="0.1" stroke-linecap="round" />
        <circle cx="14.142" cy="14.142" r="0.5" fill="red" />
        <g transform="translate(14.142 14.142) rotate(-45.000)">
            <text transform="translate(-1.000 1.000) scale(0.25, -0.25)" fill="red" stroke="none">P</text>
        </g>
        <line x1="0.000" y1="0.000" x2="14.142" y2="14.142" stroke="red" stroke-width="0.2" stroke-linecap="round" />
        <circle cx="0.000" cy="0.000" r="0.5" fill="black" />
        <g transform="translate(8.485 8.485) rotate(45.000)">
            <text transform="translate(0.000 0.500) scale(0.25, -0.25)" fill="red" stroke="none">r</text>
        </g>
        <path d="M 0.000 20.000 L 17.321 -10.000 L -17.321 10.000 L 0.000 20.000" stroke="black" stroke-width="0.1" stroke-linecap="round" fill="none" />
        <path d="M 30.000 0.000 A 30.000 30.000 0 0 1 21.213 21.213" stroke="black" stroke-width="0.1" stroke-linecap="round" fill="none" />
        <g transform="translate(27.716 11.481) rotate(-67.500)">
            <text transform="translate(0.000 0.500) scale(0.25, -0.25)" fill="black" stroke="none">&#945;</text>
        </g>
    </g>
</svg>