<svg width="150mm" height="100mm" viewBox="-50 -50 150 100" xmlns="http://www.w3.org/2000/svg" version="1.1">
    <style />
    <g transform="scale(1, -1)" fill="lightgrey">
        <circle cx="0.000" cy="0.000" r="20.000" stroke="black" stroke-width="0.35" stroke-linecap="round" />
        <g transform="translate(-1.500 1.000) rotate(0.000)">
            <text transform="translate(0.000 0.000) scale(0.25, -0.25)" fill="black" stroke="none">M</text>
        </g>
        <line x1="-40.000" y1="0.000" x2="40.000" y2="0.000" stroke="black" stroke-width="0.2" stroke-linecap="round" stroke-dasharray="2.0 1.0 0.0 1.0" stroke-dashoffset="1.0" />
        <line x1="0.000" y1="-40.000" x2="0.000" y2="40.000" stroke="black" stroke-width="0.2" stroke-linecap="round" stroke-dasharray="2.0 1.0 0.0 1.0" stroke-dashoffset="1.0" />
        <line x1="0.000" y1="0.000" x2="34.641" y2="20.000" stroke="black" stroke-width="0.1" stroke-linecap="round" />
        <circle cx="17.321" cy="10.000" r="0.5" fill="red" />
        <g transform="translate(17.321 10.000) rotate(-60.000)">
            <text transform="translate(-1.000 1.000) scale(0.25, -0.25)" fill="red" stroke="none">P</text>
        </g>
        <line x1="0.000" y1="0.000" x2="17.321" y2="10.000" stroke="red" stroke-width="0.2" stroke-linecap="round" />
        <circle cx="0.000" cy="0.000" r="0.5" fill="black" />
        <g transform="translate(10.392 6.000) rotate(30.000)">
            <text transform="translate(0.000 0.500) scale(0.25, -0.25)" fill="red" stroke="none">r</text>
        </g>
        <path d="M 20.000 0.000 L 10.000 -17.321 L -10.000 17.321 L 20.000 0.000" stroke="black" stroke-width="0.1" stroke-linecap="round" fill="none" />
        <path d="M 0.000 30.000 A 30.000 30.000 0 0 0 25.981 15.000" stroke="black" stroke-width="0.1" stroke-linecap="round" fill="none" />
        <g transform="translate(15.000 25.981) rotate(-30.000)">
            <text transform="translate(0.000 0.500) scale(0.25, -0.25)" fill="black" stroke="none">&#945;</text>
        </g>
    </g>
</svg>